<svg width="20" height="20" viewBox="0 0 20 20" fill="none" xmlns="http://www.w3.org/2000/svg">
<mask id="mask0_4011_164" style="mask-type:alpha" maskUnits="userSpaceOnUse" x="0" y="0" width="20" height="20">
<rect width="20" height="20" fill="#D9D9D9"/>
</mask>
<g mask="url(#mask0_4011_164)">
<path d="M4.16667 17.5C3.70833 17.5 3.31597 17.3368 2.98958 17.0104C2.66319 16.684 2.5 16.2917 2.5 15.8333V4.16668C2.5 3.70834 2.66319 3.31598 2.98958 2.98959C3.31597 2.6632 3.70833 2.50001 4.16667 2.50001H7.66667C7.86111 2.00001 8.16667 1.59723 8.58333 1.29168C9 0.986121 9.47222 0.833344 10 0.833344C10.5278 0.833344 11 0.986121 11.4167 1.29168C11.8333 1.59723 12.1389 2.00001 12.3333 2.50001H15.8333C16.2917 2.50001 16.684 2.6632 17.0104 2.98959C17.3368 3.31598 17.5 3.70834 17.5 4.16668V15.8333C17.5 16.2917 17.3368 16.684 17.0104 17.0104C16.684 17.3368 16.2917 17.5 15.8333 17.5H4.16667ZM10 3.54168C10.1806 3.54168 10.3299 3.48265 10.4479 3.36459C10.566 3.24654 10.625 3.09723 10.625 2.91668C10.625 2.73612 10.566 2.58682 10.4479 2.46876C10.3299 2.3507 10.1806 2.29168 10 2.29168C9.81944 2.29168 9.67014 2.3507 9.55208 2.46876C9.43403 2.58682 9.375 2.73612 9.375 2.91668C9.375 3.09723 9.43403 3.24654 9.55208 3.36459C9.67014 3.48265 9.81944 3.54168 10 3.54168ZM4.16667 14.875C4.91667 14.1389 5.78819 13.559 6.78125 13.1354C7.77431 12.7118 8.84722 12.5 10 12.5C11.1528 12.5 12.2257 12.7118 13.2188 13.1354C14.2118 13.559 15.0833 14.1389 15.8333 14.875V4.16668H4.16667V14.875ZM10 10.8333C10.8056 10.8333 11.4931 10.5486 12.0625 9.97918C12.6319 9.40973 12.9167 8.72223 12.9167 7.91668C12.9167 7.11112 12.6319 6.42362 12.0625 5.85418C11.4931 5.28473 10.8056 5.00001 10 5.00001C9.19444 5.00001 8.50694 5.28473 7.9375 5.85418C7.36806 6.42362 7.08333 7.11112 7.08333 7.91668C7.08333 8.72223 7.36806 9.40973 7.9375 9.97918C8.50694 10.5486 9.19444 10.8333 10 10.8333ZM5.83333 15.8333H14.1667V15.625C13.5833 15.1389 12.9375 14.7743 12.2292 14.5313C11.5208 14.2882 10.7778 14.1667 10 14.1667C9.22222 14.1667 8.47917 14.2882 7.77083 14.5313C7.0625 14.7743 6.41667 15.1389 5.83333 15.625V15.8333ZM10 9.16668C9.65278 9.16668 9.35764 9.04515 9.11458 8.80209C8.87153 8.55904 8.75 8.2639 8.75 7.91668C8.75 7.56945 8.87153 7.27432 9.11458 7.03126C9.35764 6.7882 9.65278 6.66668 10 6.66668C10.3472 6.66668 10.6424 6.7882 10.8854 7.03126C11.1285 7.27432 11.25 7.56945 11.25 7.91668C11.25 8.2639 11.1285 8.55904 10.8854 8.80209C10.6424 9.04515 10.3472 9.16668 10 9.16668Z" fill="#321515"/>
</g>
</svg>
